<svg 
 xmlns="http://www.w3.org/2000/svg"
 xmlns:xlink="http://www.w3.org/1999/xlink"
 width="192px" height="100px">
<path fill-rule="evenodd"  opacity="0.902" fill="rgb(255, 255, 255)"
 d="M191.116,52.607 L124.270,99.120 C123.092,100.292 121.182,100.292 120.004,99.120 L120.004,1.849 C121.182,0.676 123.092,0.676 124.270,1.849 L191.116,48.362 C192.294,49.534 192.294,51.435 191.116,52.607 ZM100.000,50.000 C100.000,77.614 77.614,100.000 50.000,100.000 C22.386,100.000 0.000,77.614 0.000,50.000 C0.000,22.386 22.386,-0.000 50.000,-0.000 C61.513,-0.000 72.107,3.902 80.557,10.443 L89.000,2.000 L89.000,27.000 L64.000,27.000 L73.417,17.583 C66.833,12.818 58.748,10.000 50.000,10.000 C27.909,10.000 10.000,27.909 10.000,50.000 C10.000,72.091 27.909,90.000 50.000,90.000 C72.091,90.000 90.000,72.091 90.000,50.000 C90.000,49.665 89.983,49.333 89.975,49.000 L90.101,49.000 C90.035,48.677 90.000,48.343 90.000,48.000 C90.000,45.239 92.239,43.000 95.000,43.000 C97.761,43.000 100.000,45.239 100.000,48.000 C100.000,48.343 99.965,48.677 99.899,49.000 L99.975,49.000 C99.981,49.334 100.000,49.665 100.000,50.000 Z"/>
</svg>