<svg 
 xmlns="http://www.w3.org/2000/svg"
 xmlns:xlink="http://www.w3.org/1999/xlink"
 width="56px" height="56px">
<path fill-rule="evenodd"  opacity="0.702" fill="rgb(255, 255, 255)"
 d="M28.000,56.000 C12.536,56.000 -0.000,43.464 -0.000,28.000 C-0.000,12.536 12.536,-0.000 28.000,-0.000 C43.464,-0.000 56.000,12.536 56.000,28.000 C56.000,43.464 43.464,56.000 28.000,56.000 ZM28.000,4.000 C14.745,4.000 4.000,14.745 4.000,28.000 C4.000,41.255 14.745,52.000 28.000,52.000 C41.255,52.000 52.000,41.255 52.000,28.000 C52.000,14.745 41.255,4.000 28.000,4.000 ZM34.309,37.330 L26.639,29.660 C26.325,29.346 26.167,28.954 26.086,28.549 C26.056,28.443 26.035,28.335 26.023,28.223 C26.021,28.180 26.009,28.139 26.010,28.095 C26.008,28.063 26.000,28.033 26.000,28.000 L26.000,10.000 C26.000,8.895 26.895,8.000 28.000,8.000 C29.105,8.000 30.000,8.895 30.000,10.000 L30.000,26.886 L37.377,34.262 C38.225,35.110 38.225,36.484 37.377,37.330 C36.530,38.178 35.156,38.178 34.309,37.330 Z"/>
</svg>