<?xml version="1.0" encoding="UTF-8" standalone="no"?>
<svg width="16px" height="15px" viewBox="0 0 16 15" version="1.1" xmlns="http://www.w3.org/2000/svg" xmlns:xlink="http://www.w3.org/1999/xlink">
    <!-- Generator: Sketch 48.1 (47250) - http://www.bohemiancoding.com/sketch -->
    <title>icon_screenshots</title>
    <desc>Created with Sketch.</desc>
    <defs></defs>
    <g id="icon_screenshots" stroke="none" stroke-width="1" fill="none" fill-rule="evenodd" transform="translate(-1.000000, -2.000000)">
        <path d="M13.5027498,16.8578537 C12.2157249,16.856965 11.0330211,16.1497947 10.4231168,15.0164587 C9.81321239,13.8831227 9.87451795,12.5064892 10.5827498,11.4318537 L9.63274984,10.2318537 L11.0427498,8.81385374 L12.1127498,10.1488537 C12.5505803,9.95543429 13.0240999,9.8559611 13.5027498,9.85685374 C15.4360226,9.85685374 17.0032498,11.424081 17.0032498,13.3573537 C17.0032498,15.2906265 15.4360226,16.8578537 13.5027498,16.8578537 Z M13.5027498,11.8578537 C12.6743227,11.8578537 12.0027498,12.5294266 12.0027498,13.3578537 C12.0027498,14.1862809 12.6743227,14.8578537 13.5027498,14.8578537 C14.331177,14.8578537 15.0027498,14.1862809 15.0027498,13.3578537 C15.0027498,12.5294266 14.331177,11.8578537 13.5027498,11.8578537 Z M7.42274984,11.4318537 C8.30518518,12.7708185 8.16479557,14.538202 7.08204244,15.7210647 C5.9992893,16.9039275 4.25117626,17.1996546 2.83959837,16.4387561 C1.42802048,15.6778576 0.714105464,14.0549962 1.10701905,12.5002816 C1.49993263,10.945567 2.89915468,9.85674586 4.50274984,9.85785374 C4.98139979,9.8569611 5.45491941,9.95643429 5.89274984,10.1498537 L12.0227498,2.46385374 C12.2164175,2.15894133 12.5594697,1.98217258 12.9201746,2.00142653 C13.2808795,2.02068049 13.6031646,2.23296406 13.7632726,2.55676056 C13.9233807,2.88055705 13.8964224,3.26553138 13.6927498,3.56385374 L7.42274984,11.4318537 Z M4.50274984,11.8578537 C3.67432272,11.8578537 3.00274984,12.5294266 3.00274984,13.3578537 C3.00274984,14.1862809 3.67432272,14.8578537 4.50274984,14.8578537 C5.33117697,14.8578537 6.00274984,14.1862809 6.00274984,13.3578537 C6.00274984,12.5294266 5.33117697,11.8578537 4.50274984,11.8578537 Z M4.31274984,3.56585374 C4.10907726,3.26753138 4.08211902,2.88255705 4.24222705,2.55876056 C4.40233509,2.23496406 4.72462015,2.02268049 5.08532507,2.00342653 C5.44602999,1.98417258 5.78908215,2.16094133 5.98274984,2.46585374 L8.38274984,5.47885374 L6.96274984,6.89685374 L4.31274984,3.56585374 Z" fill="#ffffff"></path>
    </g>
</svg>