<svg 
 xmlns="http://www.w3.org/2000/svg"
 xmlns:xlink="http://www.w3.org/1999/xlink"
 width="16px" height="16px">
<path fill-rule="evenodd"  fill="rgb(153, 153, 153)"
 d="M15.000,9.000 L9.000,9.000 L9.000,15.000 C9.000,15.552 8.552,16.000 8.000,16.000 C7.448,16.000 7.000,15.552 7.000,15.000 L7.000,9.000 L1.000,9.000 C0.448,9.000 0.000,8.552 0.000,8.000 C0.000,7.448 0.448,7.000 1.000,7.000 L7.000,7.000 L7.000,1.000 C7.000,0.448 7.448,0.000 8.000,0.000 C8.552,0.000 9.000,0.448 9.000,1.000 L9.000,7.000 L15.000,7.000 C15.552,7.000 16.000,7.448 16.000,8.000 C16.000,8.552 15.552,9.000 15.000,9.000 Z"/>
</svg>